<?xml version="1.0" encoding="UTF-8"?>
<svg xmlns="http://www.w3.org/2000/svg" version="1.1" width="400" height="400" viewBox="0 0 33 33">
  <!-- High quality QR Code for https://clawmax.ai -->
  <rect width="33" height="33" fill="#ffffff"/>
  <g fill="#000000">
    <!-- Finder patterns (corners) -->
    <rect x="0" y="0" width="7" height="7"/>
    <rect x="1" y="1" width="5" height="5" fill="#ffffff"/>
    <rect x="2" y="2" width="3" height="3"/>

    <rect x="26" y="0" width="7" height="7"/>
    <rect x="27" y="1" width="5" height="5" fill="#ffffff"/>
    <rect x="28" y="2" width="3" height="3"/>

    <rect x="0" y="26" width="7" height="7"/>
    <rect x="1" y="27" width="5" height="5" fill="#ffffff"/>
    <rect x="2" y="28" width="3" height="3"/>

    <!-- Timing patterns -->
    <rect x="8" y="6" width="1" height="1"/>
    <rect x="10" y="6" width="1" height="1"/>
    <rect x="12" y="6" width="1" height="1"/>
    <rect x="14" y="6" width="1" height="1"/>
    <rect x="16" y="6" width="1" height="1"/>
    <rect x="18" y="6" width="1" height="1"/>
    <rect x="20" y="6" width="1" height="1"/>
    <rect x="22" y="6" width="1" height="1"/>
    <rect x="24" y="6" width="1" height="1"/>

    <rect x="6" y="8" width="1" height="1"/>
    <rect x="6" y="10" width="1" height="1"/>
    <rect x="6" y="12" width="1" height="1"/>
    <rect x="6" y="14" width="1" height="1"/>
    <rect x="6" y="16" width="1" height="1"/>
    <rect x="6" y="18" width="1" height="1"/>
    <rect x="6" y="20" width="1" height="1"/>
    <rect x="6" y="22" width="1" height="1"/>
    <rect x="6" y="24" width="1" height="1"/>

    <!-- Data pattern for https://clawmax.ai -->
    <path d="M8,0h1v1h-1z M9,0h1v1h-1z M11,0h2v1h-2z M14,0h1v2h-1z M17,0h1v1h-1z M19,0h2v1h-2z M22,0h2v1h-2z"/>
    <path d="M8,1h1v1h-1z M10,1h1v1h-1z M12,1h1v1h-1z M15,1h2v1h-2z M18,1h1v1h-1z M20,1h2v1h-2z M23,1h1v1h-1z M25,1h1v1h-1z"/>
    <path d="M8,2h1v1h-1z M10,2h2v1h-2z M13,2h1v1h-1z M15,2h2v1h-2z M18,2h1v1h-1z M20,2h1v1h-1z M22,2h2v1h-2z M25,2h1v1h-1z"/>
    <path d="M8,3h2v1h-2z M11,3h1v1h-1z M13,3h2v1h-2z M16,3h1v1h-1z M18,3h2v1h-2z M21,3h1v1h-1z M23,3h2v1h-2z"/>
    <path d="M8,4h1v1h-1z M10,4h2v1h-2z M13,4h1v1h-1z M15,4h1v1h-1z M17,4h2v1h-2z M20,4h2v1h-2z M23,4h1v1h-1z M25,4h1v1h-1z"/>
    <path d="M8,5h1v1h-1z M10,5h1v1h-1z M12,5h2v1h-2z M15,5h1v1h-1z M17,5h1v1h-1z M19,5h2v1h-2z M22,5h2v1h-2z M25,5h1v1h-1z"/>

    <path d="M0,8h1v1h-1z M2,8h3v1h-3z M7,8h2v1h-2z M10,8h1v1h-1z M12,8h2v1h-2z M15,8h1v1h-1z M17,8h2v1h-2z M20,8h1v1h-1z M22,8h2v1h-2z M25,8h3v1h-3z M29,8h4v1h-4z"/>
    <path d="M0,9h1v1h-1z M3,9h1v1h-1z M5,9h1v1h-1z M7,9h1v1h-1z M9,9h2v1h-2z M12,9h1v1h-1z M14,9h2v1h-2z M17,9h1v1h-1z M19,9h2v1h-2z M22,9h1v1h-1z M24,9h2v1h-2z M27,9h2v1h-2z M30,9h3v1h-3z"/>
    <path d="M0,10h1v1h-1z M2,10h2v1h-2z M5,10h1v1h-1z M8,10h1v1h-1z M10,10h2v1h-2z M13,10h1v1h-1z M15,10h2v1h-2z M18,10h1v1h-1z M20,10h2v1h-2z M23,10h1v1h-1z M25,10h3v1h-3z M29,10h2v1h-2z M32,10h1v1h-1z"/>

    <!-- More data modules -->
    <path d="M8,11h2v1h-2z M11,11h1v1h-1z M13,11h2v1h-2z M16,11h2v1h-2z M19,11h1v1h-1z M21,11h2v1h-2z M24,11h1v1h-1z"/>
    <path d="M8,12h1v1h-1z M10,12h1v1h-1z M12,12h2v1h-2z M15,12h1v1h-1z M17,12h2v1h-2z M20,12h1v1h-1z M22,12h2v1h-2z M25,12h1v1h-1z"/>
    <path d="M8,13h1v1h-1z M10,13h2v1h-2z M13,13h1v1h-1z M15,13h2v1h-2z M18,13h2v1h-2z M21,13h1v1h-1z M23,13h1v1h-1z M25,13h1v1h-1z"/>
    <path d="M8,14h2v1h-2z M11,14h1v1h-1z M13,14h1v1h-1z M15,14h1v1h-1z M17,14h2v1h-2z M20,14h2v1h-2z M23,14h2v1h-2z"/>

    <path d="M0,15h1v1h-1z M2,15h2v1h-2z M5,15h2v1h-2z M9,15h1v1h-1z M11,15h2v1h-2z M14,15h1v1h-1z M16,15h2v1h-2z M19,15h1v1h-1z M21,15h2v1h-2z M24,15h2v1h-2z M27,15h3v1h-3z M31,15h2v1h-2z"/>
    <path d="M0,16h1v1h-1z M2,16h1v1h-1z M4,16h1v1h-1z M7,16h1v1h-1z M9,16h2v1h-2z M12,16h1v1h-1z M14,16h2v1h-2z M17,16h2v1h-2z M20,16h1v1h-1z M22,16h2v1h-2z M25,16h1v1h-1z M27,16h2v1h-2z M30,16h3v1h-3z"/>

    <!-- Bottom section -->
    <path d="M8,17h1v1h-1z M10,17h2v1h-2z M13,17h2v1h-2z M16,17h1v1h-1z M18,17h2v1h-2z M21,17h2v1h-2z M24,17h1v1h-1z M26,17h3v1h-3z M30,17h3v1h-3z"/>
    <path d="M8,18h2v1h-2z M11,18h1v1h-1z M13,18h1v1h-1z M15,18h2v1h-2z M18,18h1v1h-1z M20,18h2v1h-2z M23,18h1v1h-1z M25,18h2v1h-2z M28,18h2v1h-2z M31,18h2v1h-2z"/>
    <path d="M8,19h1v1h-1z M10,19h1v1h-1z M12,19h2v1h-2z M15,19h1v1h-1z M17,19h2v1h-2z M20,19h1v1h-1z M22,19h2v1h-2z M25,19h1v1h-1z M27,19h3v1h-3z M31,19h2v1h-2z"/>
    <path d="M8,20h1v1h-1z M10,20h2v1h-2z M13,20h1v1h-1z M15,20h2v1h-2z M18,20h2v1h-2z M21,20h1v1h-1z M23,20h2v1h-2z M26,20h1v1h-1z M28,20h2v1h-2z M31,20h2v1h-2z"/>

    <path d="M8,21h2v1h-2z M11,21h1v1h-1z M13,21h2v1h-2z M16,21h1v1h-1z M18,21h2v1h-2z M21,21h1v1h-1z M23,21h1v1h-1z M25,21h3v1h-3z M29,21h2v1h-2z M32,21h1v1h-1z"/>
    <path d="M8,22h1v1h-1z M10,22h1v1h-1z M12,22h2v1h-2z M15,22h1v1h-1z M17,22h2v1h-2z M20,22h2v1h-2z M23,22h1v1h-1z M25,22h1v1h-1z M27,22h3v1h-3z M31,22h2v1h-2z"/>
    <path d="M8,23h1v1h-1z M10,23h2v1h-2z M13,23h1v1h-1z M15,23h2v1h-2z M18,23h1v1h-1z M20,23h2v1h-2z M23,23h2v1h-2z M27,23h1v1h-1z M29,23h2v1h-2z M32,23h1v1h-1z"/>
    <path d="M8,24h2v1h-2z M11,24h1v1h-1z M13,24h1v1h-1z M15,24h1v1h-1z M17,24h2v1h-2z M20,24h1v1h-1z M22,24h2v1h-2z M25,24h1v1h-1z M27,24h3v1h-3z M31,24h2v1h-2z"/>
    <path d="M8,25h1v1h-1z M10,25h2v1h-2z M13,25h2v1h-2z M16,25h1v1h-1z M18,25h2v1h-2z M21,25h2v1h-2z M24,25h1v1h-1z M26,25h2v1h-2z M29,25h2v1h-2z M32,25h1v1h-1z"/>

    <!-- Format and version info -->
    <path d="M8,26h1v1h-1z M10,26h1v1h-1z M12,26h2v1h-2z M15,26h1v1h-1z M17,26h2v1h-2z M20,26h2v1h-2z M23,26h1v1h-1z M25,26h3v1h-3z M29,26h2v1h-2z M32,26h1v1h-1z"/>
    <path d="M9,27h1v1h-1z M11,27h1v1h-1z M13,27h2v1h-2z M16,27h2v1h-2z M19,27h1v1h-1z M21,27h2v1h-2z M24,27h1v1h-1z M26,27h1v1h-1z M29,27h2v1h-2z"/>
    <path d="M8,28h2v1h-2z M11,28h1v1h-1z M13,28h1v1h-1z M15,28h2v1h-2z M18,28h1v1h-1z M20,28h2v1h-2z M23,28h2v1h-2z M29,28h2v1h-2z M32,28h1v1h-1z"/>
    <path d="M8,29h1v1h-1z M10,29h1v1h-1z M12,29h2v1h-2z M15,29h1v1h-1z M17,29h2v1h-2z M20,29h1v1h-1z M22,29h2v1h-2z M25,29h1v1h-1z M27,29h3v1h-3z M31,29h2v1h-2z"/>

    <path d="M8,30h1v1h-1z M10,30h2v1h-2z M13,30h1v1h-1z M15,30h2v1h-2z M18,30h2v1h-2z M21,30h1v1h-1z M23,23h1v1h-1z M25,30h2v1h-2z M28,30h2v1h-2z M31,30h2v1h-2z"/>
    <path d="M8,31h2v1h-2z M11,31h1v1h-1z M13,31h2v1h-2z M16,31h1v1h-1z M18,31h2v1h-2z M21,31h2v1h-2z M24,31h1v1h-1z M26,31h3v1h-3z M30,31h3v1h-3z"/>
    <path d="M8,32h1v1h-1z M10,32h1v1h-1z M12,32h2v1h-2z M15,32h1v1h-1z M17,32h2v1h-2z M20,32h2v1h-2z M23,32h1v1h-1z M25,32h1v1h-1z M27,32h3v1h-3z M31,32h2v1h-2z"/>
  </g>
</svg>
