<?xml version="1.0" encoding="UTF-8"?>
<svg xmlns="http://www.w3.org/2000/svg" version="1.1" width="200" height="200" viewBox="0 0 29 29">
  <!-- QR Code for https://clawmax.ai -->
  <rect width="29" height="29" fill="#ffffff"/>
  <path fill="#000000" d="M0,0h7v7h-7z M8,0h1v1h1v1h-1v1h-1v-1h-1v-1h1z M10,0h1v1h-1z M12,0h2v1h1v1h-1v1h-1v-1h-1z M15,0h1v1h-1z M17,0h1v1h2v1h-2v1h-1v-1h-1v2h1v1h-2v-1h-1v-1h1v-1h1v-1h1z M22,0h7v7h-7z M1,1v5h5v-5z M23,1v5h5v-5z M2,2h3v3h-3z M24,2h3v3h-3z M10,2h1v1h-1z M13,2h1v2h-1z M11,3h1v1h-1z M15,3h1v1h-1z M17,3h1v2h-1z M19,3h1v1h1v1h-2z M8,4h1v1h-1z M10,4h1v1h-1z M13,4h1v1h-1z M19,5h1v1h-1z M9,6h2v1h-1v1h-1z M12,6h1v1h1v1h-1v1h-1v-2h1v-1h-1z M15,6h2v1h-1v1h-1z M18,6h1v2h1v1h-1v1h-1v-2h-1v-1h1z M0,8h1v2h2v1h-3z M4,8h3v1h1v2h-1v-1h-1v1h-1v1h1v2h-1v-1h-2v-1h1v-2h-1v-1h1z M20,8h2v1h-2z M10,9h2v1h-2z M14,9h3v1h2v1h-2v1h-1v1h1v1h-2v-2h-1v-1h1v-1h-1z M8,10h1v1h1v1h-1v1h-1v-1h-1v-1h2z M11,10h1v1h-1z M21,10h1v1h-1z M5,11h1v1h-1z M12,11h1v1h-1z M19,11h1v1h-1z M1,12h1v1h-1z M10,12h1v1h-1z M21,13h1v1h-1z M0,14h1v1h-1z M7,14h1v1h-1z M17,14h2v1h1v1h-1v1h-1v-1h-1z M20,14h1v2h-1z M5,15h2v1h-1v1h-1z M8,15h2v1h1v1h-2v1h-1v-2h1v-1h-1z M11,15h1v1h-1z M12,16h1v1h-1z M16,16h1v1h-1z M1,17h1v1h1v1h1v1h-1v1h-1v-1h-1v-1h1v-1h-1z M3,17h1v1h-1z M5,17h2v1h1v1h-3v1h-1v-2h1z M9,17h1v1h-1z M14,17h1v1h-1z M18,17h1v1h-1z M21,17h1v2h-1z M11,18h2v1h-2z M15,18h2v1h1v1h-1v1h-1v-1h-1z M19,18h1v2h1v1h-2v-1h-1v-1h1z M8,19h1v2h-1z M10,19h1v1h-1z M13,19h1v2h-1z M3,20h1v1h-1z M12,20h1v1h-1z M21,20h1v1h-1z M0,21h1v1h-1z M4,21h3v1h-1v2h1v1h-1v1h-2v-1h-1v-1h1v-1h-1v-1h1z M9,21h3v1h-3z M14,21h1v1h-1z M20,21h1v1h-1z M0,22h7v7h-7z M8,22h1v2h1v2h-2v-1h-1v-2h1z M11,22h1v1h-1z M15,22h1v1h-1z M17,22h3v1h-1v2h-1v-2h-1z M21,22h1v1h-1z M1,23v5h5v-5z M10,23h1v1h-1z M12,23h1v1h-1z M22,23h7v7h-7z M2,24h3v3h-3z M11,24h1v1h1v1h-1v1h-1v-1h-1v-1h1z M14,24h1v1h-1z M16,24h1v2h-2v-1h1z M20,24h1v1h-1z M23,24v5h5v-5z M24,25h3v3h-3z M14,25h1v1h-1z M18,25h1v1h-1z M10,26h1v1h1v1h-2z M13,26h1v2h-1z M15,26h1v1h-1z M17,26h1v1h-1z M20,26h1v2h-1z M8,27h1v1h-1z M14,27h1v1h-1z M16,27h3v1h-3z M21,27h1v1h-1z M9,28h1v1h-1z M11,28h1v1h-1z M15,28h1v1h-1z M18,28h1v1h-1z"/>
</svg>
